<svg xmlns="http://www.w3.org/2000/svg" xmlns:xlink="http://www.w3.org/1999/xlink" viewBox="0 0 425.33 415.94"><defs><style>.cls-1{fill:none;}.cls-2{fill:#d7adb3;}.cls-3{fill:#efd1c2;}.cls-4{clip-path:url(#clip-path);}.cls-5{fill:#c06882;}.cls-6{fill:#504d4e;}.cls-7{fill:#8a4e38;}</style><clipPath id="clip-path"><ellipse class="cls-1" cx="201.08" cy="356.74" rx="55.03" ry="18.26"/></clipPath></defs><title>Asset 9</title><g id="Layer_2" data-name="Layer 2"><g id="Layer_3" data-name="Layer 3"><path class="cls-2" d="M50.43,271.31s-8.38-26-34.39-17.63-.86,86.39,51.15,69.63Z"/><path class="cls-2" d="M357.14,271.31s8.38-26,34.39-17.63.86,86.39-51.15,69.63Z"/><path class="cls-3" d="M203.78,415.94h0c-90.15,0-163.91-73.77-163.91-163.92V163.85c0-71.71,58.67-130.39,130.39-130.39h67.05C309,33.46,367.7,92.14,367.7,163.85V252C367.7,342.17,293.94,415.94,203.78,415.94Z"/><path class="cls-2" d="M218,292.46c0,11.89-1,16.09-17.62,16.09s-17.61-4.2-17.61-16.09,7.88-21.53,17.61-21.53S218,280.57,218,292.46Z"/><g class="cls-4"><path class="cls-5" d="M158.3,342.12c0-11.9,25.5-16.09,42.11-16.09s42.11,4.19,42.11,16.09-32.38,21.53-42.11,21.53S158.3,354,158.3,342.12Z"/></g><circle class="cls-6" cx="117" cy="255.57" r="21.41"/><circle class="cls-6" cx="288.28" cy="255.57" r="21.41"/><path class="cls-7" d="M118,135.51c-25.25,13.59-53,22-60,43s-18,42-12,125.06c-25-2-70-156.07-30-212.1,24-36,42-38,82-50,44-8,46.75,41.8,36,74C129.35,123.83,126.87,123.61,118,135.51Z"/><path class="cls-7" d="M425.33,198c0,54.07.11,117.85-42.08,154a83.23,83.23,0,0,1-30,15.43,209.82,209.82,0,0,0-.31-31.51C353.67,228,231,175.41,144.33,146.53a302.87,302.87,0,0,1-32.44-15.18c-47-27.88-18.55-94.79,23.34-115.59a214.81,214.81,0,0,1,36-10.66A237.6,237.6,0,0,1,209.63.49C307.19-7,416.09,71.23,422.25,171.92A250.34,250.34,0,0,1,425.33,198Z"/><path class="cls-7" d="M118,135.51c-25.25,13.59-53,22-60,43s-18,42-12,125.06c-25-2-70-156.07-30-212.1,24-36,42-38,82-50,44-8,46.75,41.8,36,74C129.35,123.83,126.87,123.61,118,135.51Z"/><path class="cls-7" d="M425.33,198c0,54.07.11,117.85-42.08,154a83.23,83.23,0,0,1-30,15.43,209.82,209.82,0,0,0-.31-31.51C353.67,228,231,175.41,144.33,146.53a302.87,302.87,0,0,1-32.44-15.18c-47-27.88-18.55-94.79,23.34-115.59a214.81,214.81,0,0,1,36-10.66A237.6,237.6,0,0,1,209.63.49C307.19-7,416.09,71.23,422.25,171.92A250.34,250.34,0,0,1,425.33,198Z"/><path class="cls-7" d="M118,135.51c-25.25,13.59-53,22-60,43s-18,42-12,125.06c-25-2-70-156.07-30-212.1,24-36,42-38,82-50,44-8,46.75,41.8,36,74C129.35,123.83,126.87,123.61,118,135.51Z"/><path class="cls-7" d="M425.33,198c0,54.07.11,117.85-42.08,154a83.23,83.23,0,0,1-30,15.43,209.82,209.82,0,0,0-.31-31.51C353.67,228,231,175.41,144.33,146.53a302.87,302.87,0,0,1-32.44-15.18c-47-27.88-18.55-94.79,23.34-115.59a214.81,214.81,0,0,1,36-10.66A237.6,237.6,0,0,1,209.63.49C307.19-7,416.09,71.23,422.25,171.92A250.34,250.34,0,0,1,425.33,198Z"/></g></g></svg>