<svg xmlns="http://www.w3.org/2000/svg" xmlns:xlink="http://www.w3.org/1999/xlink" viewBox="0 0 436.69 1278.3"><defs><style>.cls-1{fill:none;}.cls-2{fill:url(#linear-gradient);}.cls-3{fill:#efd7b4;}.cls-4{fill:#dea788;}.cls-5{fill:#e1ae90;}.cls-6{clip-path:url(#clip-path);}.cls-7{fill:#de7765;}.cls-8{fill:#6f6b6c;}.cls-9{fill:url(#linear-gradient-2);}.cls-10{fill:url(#linear-gradient-3);}.cls-11{fill:url(#linear-gradient-4);}.cls-12{fill:url(#linear-gradient-5);}.cls-13{fill:#755d53;}.cls-14{fill:#b9b0a5;}.cls-15{fill:#64244e;}.cls-16{fill:#ab866f;}.cls-17{fill:#a14992;}</style><linearGradient id="linear-gradient" x1="218.34" y1="915.45" x2="218.34" y2="438.19" gradientUnits="userSpaceOnUse"><stop offset="0.97" stop-color="#efd7b4"/><stop offset="0.99" stop-color="#e7bf9f"/><stop offset="1" stop-color="#e1ae90"/></linearGradient><clipPath id="clip-path"><ellipse class="cls-1" cx="215.64" cy="387.93" rx="55.03" ry="18.26"/></clipPath><linearGradient id="linear-gradient-2" x1="248.54" y1="1063.77" x2="344.4" y2="1063.77" xlink:href="#linear-gradient"/><linearGradient id="linear-gradient-3" x1="248.45" y1="1251.5" x2="355.63" y2="1251.5" xlink:href="#linear-gradient"/><linearGradient id="linear-gradient-4" x1="92.29" y1="1063.77" x2="188.15" y2="1063.77" xlink:href="#linear-gradient"/><linearGradient id="linear-gradient-5" x1="-153.24" y1="1251.5" x2="-46.06" y2="1251.5" gradientTransform="matrix(-1, 0, 0, 1, 35, 0)" xlink:href="#linear-gradient"/></defs><title>Asset 4</title><g id="Layer_2" data-name="Layer 2"><g id="Layer_3" data-name="Layer 3"><path class="cls-2" d="M344.4,875.23l-92.65,40.22c0-7.93-67.25-7.93-67.25,0L92.61,875.23c0-66.5-3-24,8.13-122.59,7.32-64.82-21.15-142.09-41-176.66-9.06-15.75.36-59.75,20.94-66.5,39.09-12.84,99.79-16.71,99.79-48.65V393h75.8v67.82c0,31.94,60.71,35.81,99.8,48.65,20.57,6.75,30,50.75,20.94,66.5-9.24,16.06-24.39,28-37.34,42.72-14.93,16.94-7.71,99.24-3.69,133.94C347.35,851.22,344.4,808.73,344.4,875.23Z"/><path class="cls-3" d="M121.94,562.08c-2.52,5-5.29,10.93-7.83,16.55s-5.1,11.44-7.57,17.21c-5,11.55-9.59,23.25-14.09,35Q79.1,666.1,68.74,702.21a726.68,726.68,0,0,0-17.08,72.73l-3.09,18.35c-.92,6.12-1.54,12.25-2.33,18.38l-1.13,9.21c-.31,3.07-.45,6.14-.69,9.21l-1.3,18.45-.06.89c-.68,9.52-9.93,16.76-20.67,16.16C12.15,865,4.26,857.48,4.12,848.54l-.24-19.65c0-3.28-.12-6.57-.06-9.84l.38-9.79c.3-6.53.43-13.09.88-19.61l1.65-19.53a761.4,761.4,0,0,1,11.64-77.49q7.75-38.45,18.67-76.3c3.7-12.59,7.56-25.17,11.77-37.69,2.11-6.26,4.25-12.52,6.53-18.78s4.54-12.35,7.28-19.13c6-14.76,24.32-22.44,41-17.14s25.32,21.55,19.35,36.32c-.26.63-.54,1.26-.84,1.86Z"/><path class="cls-3" d="M60.29,858.32C68.81,882.58,82,907.57,65,912.26s-50.93,6.61-59.45-17.65-8.44-67,8.54-71.72S51.77,834.07,60.29,858.32Z"/><path class="cls-4" d="M71.14,900.35l-23,6.35a3.83,3.83,0,0,1-4.67-2.17L30.54,867.78l30.15-8.33L73.6,896.21A3.27,3.27,0,0,1,71.14,900.35Z"/><path class="cls-3" d="M69.32,895.15l-21.4,5.91a3.85,3.85,0,0,1-4.67-2.17L30.34,862.13l28.52-7.87L71.78,891A3.27,3.27,0,0,1,69.32,895.15Z"/><path class="cls-3" d="M374.07,540.73c2.74,6.78,5,12.79,7.27,19.13s4.43,12.52,6.54,18.78c4.21,12.52,8.06,25.1,11.77,37.69q10.94,37.84,18.67,76.3A758.58,758.58,0,0,1,430,770.12l1.66,19.53c.45,6.52.57,13.08.87,19.61l.38,9.79c.07,3.27,0,6.56-.06,9.84l-.24,19.65c-.11,9.54-8.93,17.19-19.69,17.08-10.26-.1-18.58-7.2-19.24-16.13l-.06-1-1.31-18.45c-.23-3.07-.38-6.14-.69-9.21l-1.13-9.21c-.79-6.13-1.4-12.26-2.33-18.38L385,774.94A732.24,732.24,0,0,0,368,702.21q-10.38-36-23.71-71.38c-4.51-11.74-9.14-23.44-14.09-35-2.48-5.77-5-11.53-7.57-17.21s-5.32-11.5-7.84-16.55l-.12-.24c-7.18-14.34.12-31.12,16.3-37.48s35.1.11,42.28,14.45C373.51,539.42,373.81,540.11,374.07,540.73Z"/><path class="cls-3" d="M376.4,858.32c-8.53,24.26-21.72,49.25-4.74,53.94s50.93,6.61,59.45-17.65,8.45-67-8.54-71.72S384.92,834.07,376.4,858.32Z"/><path class="cls-4" d="M365.54,900.35l23,6.35a3.85,3.85,0,0,0,4.68-2.17l12.91-36.75L376,859.45l-12.91,36.76A3.26,3.26,0,0,0,365.54,900.35Z"/><path class="cls-3" d="M367.36,895.15l21.41,5.91a3.86,3.86,0,0,0,4.67-2.17l12.91-36.76-28.53-7.87L364.91,891A3.26,3.26,0,0,0,367.36,895.15Z"/><path class="cls-5" d="M65,302.5s-8.38-26-34.38-17.62-.86,86.39,51.14,69.63Z"/><path class="cls-5" d="M371.7,302.5s8.38-26,34.38-17.62.87,86.39-51.14,69.63Z"/><path class="cls-3" d="M218.34,447.13h0c-90.15,0-163.92-73.76-163.92-163.92V195.05c0-71.72,58.68-130.39,130.4-130.39h67.05c71.72,0,130.39,58.67,130.39,130.39v88.16C382.26,373.37,308.5,447.13,218.34,447.13Z"/><path class="cls-5" d="M232.59,323.66c0,11.89-1,16.08-17.62,16.08s-17.62-4.19-17.62-16.08,7.89-21.53,17.62-21.53S232.59,311.77,232.59,323.66Z"/><g class="cls-6"><path class="cls-7" d="M172.86,373.31c0-11.89,25.49-16.08,42.11-16.08s42.11,4.19,42.11,16.08S224.7,394.84,215,394.84,172.86,385.2,172.86,373.31Z"/></g><circle class="cls-8" cx="131.56" cy="286.77" r="21.41"/><circle class="cls-8" cx="302.84" cy="286.77" r="21.41"/><path class="cls-9" d="M344.3,889.82l-42.9,363.73c-.83,7-7.59,12.27-15.66,12.27H264.28c-8.77,0-15.84-6.2-15.74-13.81.78-61.17,3.92-305.92,3.92-334.39,0-32.41,91.06-89.78,91.94-29.54A12.6,12.6,0,0,1,344.3,889.82Z"/><path class="cls-10" d="M257.15,1278.3a8.73,8.73,0,0,1-8.7-9c.66-28.6,4.91-36.5,17.55-43.68,10.85-6.17,71.26,18.79,87.58,38.35a8.71,8.71,0,0,1-6.68,14.29Z"/><path class="cls-11" d="M92.38,889.82l42.91,363.73c.82,7,7.58,12.27,15.66,12.27h21.46c8.76,0,15.84-6.2,15.74-13.81-.79-61.17-3.92-305.92-3.92-334.39,0-32.41-91.07-89.78-91.94-29.54A12.6,12.6,0,0,0,92.38,889.82Z"/><path class="cls-12" d="M179.54,1278.3a8.72,8.72,0,0,0,8.69-9c-.65-28.6-4.91-36.5-17.55-43.68-10.85-6.17-71.25,18.79-87.58,38.35a8.71,8.71,0,0,0,6.69,14.29Z"/><path class="cls-13" d="M117.6,344.78a19.71,19.71,0,0,1,1.45,1.9A4.53,4.53,0,0,0,117.6,344.78Z"/><path class="cls-13" d="M323.43,387.79a155.94,155.94,0,0,1-17-1.21A40.13,40.13,0,0,0,323.43,387.79Z"/><path class="cls-14" d="M64.3,166.34c-29.87-7.76-52.87-35.76-55.87-66.76-3-29,12-55,34-73,36-29,87-38,125-8,19,16,34,52,11,68-35,23-84,21-106.93,59.56A64.7,64.7,0,0,0,64.3,166.34Z"/><path class="cls-14" d="M208.43,60.58c-20-26-189-17.8-177.83,224.3,38.54,10.2,17.92,108.05,73.83,99.45,24.43-3.76,21.87-26.95,14.62-37.65,6.49,14.87-33.32,82.38-46.62-46.1,2-44,110-78,140-182,0,.19.11.37.16.56C220.25,99.3,208.43,80.43,208.43,60.58Z"/><path class="cls-14" d="M171.93,51.58c68-30,244.37-8.8,233.21,233.3-38.54,10.2-17.92,108.05-73.83,99.45-24.43-3.76-21.87-26.95-14.61-37.65-6.49,14.87,33.31,82.38,46.61-46.1-2-44-121.38-78.5-151.38-182.5C211.88,118.27,212.93,72.58,171.93,51.58Z"/><path class="cls-15" d="M418.32,692.63q-7.76-38.45-18.67-76.3c-3.71-12.59-7.56-25.17-11.77-37.69-2.11-6.26-4.25-12.52-6.54-18.78-.32-.89-.63-1.77-.95-2.64-.61-19-9.62-42.91-24.35-47.74S323.23,501,306.65,496.7c-20.15,18.54-53,30.62-90.16,30.62-36.64,0-69.12-11.75-89.34-29.88-15.75,4-32.51,7.44-46.5,12-14.73,4.83-23.74,28.76-24.35,47.74l-1,2.64c-2.28,6.26-4.42,12.52-6.53,18.78-4.21,12.52-8.07,25.1-11.77,37.69q-11,37.84-18.67,76.3c-4.75,22.9-8.19,46.06-10.76,69.3l44.72,9.5c4.4-23.23,9.68-46.35,16.41-69.22q8.51-29.54,19-58.6c10.24,34,17,73.39,13,109-.29,2.57-.57,5-.84,7.39H336.81c-.28-2.37-.57-4.82-.86-7.39-4-34.63-11.21-116.66,3.6-133.83q2.37,6,4.69,12Q357.59,666.1,368,702.21c6.78,23,12.09,46.36,16.51,69.77l44.68-9.48C426.56,739.07,423.11,715.72,418.32,692.63Z"/><path class="cls-16" d="M306.78,1234.73c-9,8.92-23.51,14.72-39.89,14.72-5.75,0-12.93-1.44-18.06-2.75,0,0-.08,13-.26,22.64a8.75,8.75,0,0,0,8.7,9H347A8.71,8.71,0,0,0,353.7,1264C345.38,1254,325.61,1242.66,306.78,1234.73Z"/><path class="cls-16" d="M130,1234.73c9,8.92,23.51,14.72,39.89,14.72,5.75,0,12.93-1.44,18.06-2.75,0,0,.08,13,.26,22.64a8.75,8.75,0,0,1-8.7,9H89.79A8.71,8.71,0,0,1,83.11,1264C91.43,1254,111.2,1242.66,130,1234.73Z"/><path class="cls-17" d="M92.61,875.23l1.51.66a40.6,40.6,0,0,0-1.83,12.19,12.6,12.6,0,0,0,.09,1.74L120,1124H316.68L344.3,889.82a12.6,12.6,0,0,0,.1-1.74A40.92,40.92,0,0,0,342.61,876l1.8-.78c0-58.56,2.27-32.63-5-92.92H97.33C90.28,842.6,92.61,816.67,92.61,875.23Z"/><path class="cls-17" d="M336.81,760H99.9c-.35,3.08-.69,6-1,8.78h239C337.51,766,337.16,763.11,336.81,760Z"/><path class="cls-15" d="M98.89,768.81c-.56,4.93-1.08,9.42-1.56,13.5H339.44c-.49-4.08-1-8.57-1.6-13.5Z"/></g></g></svg>