<svg xmlns="http://www.w3.org/2000/svg" xmlns:xlink="http://www.w3.org/1999/xlink" viewBox="0 0 436.69 1366.78"><defs><style>.cls-1{fill:none;}.cls-2{fill:url(#linear-gradient);}.cls-3{fill:#ecc58e;}.cls-4{fill:#cc9156;}.cls-5{fill:#d29a66;}.cls-6{clip-path:url(#clip-path);}.cls-7{fill:#e2a372;}.cls-8{fill:#504e4f;}.cls-9{fill:url(#linear-gradient-2);}.cls-10{fill:url(#linear-gradient-3);}.cls-11{fill:url(#linear-gradient-4);}.cls-12{fill:url(#linear-gradient-5);}.cls-13{fill:#5c4940;}.cls-14{fill:#e4f2e6;}.cls-15{fill:#5c6c9a;}.cls-16{fill:#a22922;}</style><linearGradient id="linear-gradient" x1="217.65" y1="909.9" x2="217.65" y2="397.87" gradientUnits="userSpaceOnUse"><stop offset="0.97" stop-color="#ecc58e"/><stop offset="0.99" stop-color="#ddad78"/><stop offset="1" stop-color="#d29a66"/></linearGradient><clipPath id="clip-path"><ellipse class="cls-1" cx="215.64" cy="344.32" rx="55.03" ry="18.26"/></clipPath><linearGradient id="linear-gradient-2" x1="234.79" y1="1097.39" x2="330.65" y2="1097.39" xlink:href="#linear-gradient"/><linearGradient id="linear-gradient-3" x1="248.45" y1="1339.98" x2="355.63" y2="1339.98" xlink:href="#linear-gradient"/><linearGradient id="linear-gradient-4" x1="105.65" y1="1097.39" x2="201.52" y2="1097.39" xlink:href="#linear-gradient"/><linearGradient id="linear-gradient-5" x1="-2745.89" y1="1339.98" x2="-2638.72" y2="1339.98" gradientTransform="matrix(-1, 0, 0, 1, -2557.66, 0)" xlink:href="#linear-gradient"/></defs><title>Asset 8</title><g id="Layer_2" data-name="Layer 2"><g id="Layer_3" data-name="Layer 3"><path class="cls-2" d="M354.46,475.56c-39.09-13.9-99.79-18.09-99.79-52.7V349.4h-74v73.46c0,34.61-60.71,38.8-99.8,52.7-20.58,7.31-30,55-20.94,72,19.89,37.46,47.79,111.62,47.79,128s-3.49,121.34-3.49,186.81l80.12,47.52c0-4.27,16.55-6.43,33.33-6.49S251,905.63,251,909.9l80.12-47.52c0-65.47-2.59-170.46-2.59-186.81s27-90.52,46.88-128C384.45,530.54,375,482.87,354.46,475.56Z"/><path class="cls-3" d="M121.94,523.62c-2.52,5.69-5.29,12.32-7.83,18.66s-5.1,12.91-7.57,19.42c-5,13-9.59,26.22-14.09,39.47Q79.1,641,68.74,681.69c-7.07,27.1-12.55,54.52-17.08,82l-3.09,20.7c-.92,6.9-1.54,13.82-2.33,20.74l-1.13,10.39c-.31,3.46-.45,6.92-.69,10.39l-1.3,20.8-.06,1a19.49,19.49,0,0,1-38.94-1L3.88,824.6c0-3.7-.12-7.41-.06-11.1l.38-11c.3-7.36.43-14.76.88-22.12l1.65-22c2.65-29.31,6.33-58.54,11.64-87.41S29.74,613.27,37,584.82c3.7-14.21,7.56-28.4,11.77-42.53,2.11-7.06,4.25-14.12,6.53-21.18s4.54-13.94,7.28-21.58a32,32,0,0,1,60.32,21.64q-.39,1.07-.84,2.1Z"/><path class="cls-3" d="M60.29,857.81C68.81,885.17,82,913.36,65,918.65S14.09,926.1,5.57,898.74s-8.44-75.62,8.54-80.9S51.77,830.44,60.29,857.81Z"/><path class="cls-4" d="M36.83,862.71H68.41a0,0,0,0,1,0,0v43.42a3.73,3.73,0,0,1-3.73,3.73H40.56a3.73,3.73,0,0,1-3.73-3.73V862.71A0,0,0,0,1,36.83,862.71Z" transform="translate(-261.14 55.73) rotate(-17.3)"/><path class="cls-3" d="M36.67,856.6H66.55a0,0,0,0,1,0,0V900a3.73,3.73,0,0,1-3.73,3.73H40.4A3.73,3.73,0,0,1,36.67,900V856.6a0,0,0,0,1,0,0Z" transform="matrix(0.95, -0.3, 0.3, 0.95, -259.37, 55.15)"/><path class="cls-3" d="M374.07,499.53c2.74,7.64,5,14.43,7.27,21.58s4.43,14.12,6.54,21.18c4.21,14.13,8.06,28.32,11.77,42.53q10.94,42.67,18.67,86.07c5.31,28.87,9,58.1,11.63,87.41l1.66,22c.45,7.36.57,14.76.87,22.12l.38,11c.07,3.69,0,7.4-.06,11.1l-.24,22.16a19.49,19.49,0,0,1-38.93,1.08l-.06-1.08L392.26,826c-.23-3.47-.38-6.93-.69-10.39l-1.13-10.39c-.79-6.92-1.4-13.84-2.33-20.74L385,763.74c-4.54-27.53-10-55-17.08-82s-14.81-54-23.71-80.52c-4.51-13.25-9.14-26.44-14.09-39.47-2.48-6.51-5-13-7.57-19.42s-5.32-13-7.84-18.66l-.12-.28a32,32,0,1,1,58.58-26C373.51,498.05,373.81,498.83,374.07,499.53Z"/><path class="cls-3" d="M376.4,857.81c-8.53,27.36-21.72,55.55-4.74,60.84s50.93,7.45,59.45-19.91,8.45-75.62-8.54-80.9S384.92,830.44,376.4,857.81Z"/><path class="cls-4" d="M372,862.71h24.11a3.73,3.73,0,0,1,3.73,3.73v43.42a0,0,0,0,1,0,0H368.27a0,0,0,0,1,0,0V866.44a3.73,3.73,0,0,1,3.73-3.73Z" transform="matrix(-0.95, -0.3, 0.3, -0.95, 487.23, 1846.69)"/><path class="cls-3" d="M373.86,856.6h22.42a3.73,3.73,0,0,1,3.73,3.73v43.43a0,0,0,0,1,0,0H370.14a0,0,0,0,1,0,0V860.33A3.73,3.73,0,0,1,373.86,856.6Z" transform="translate(491.03 1835.04) rotate(-162.7)"/><path class="cls-5" d="M65,258.89s-8.38-26-34.38-17.62-.86,86.38,51.14,69.62Z"/><path class="cls-5" d="M371.7,258.89s8.38-26,34.38-17.62.87,86.38-51.14,69.62Z"/><path class="cls-3" d="M218.34,403.52h0c-90.15,0-163.92-73.76-163.92-163.92V151.44C54.42,79.72,113.1,21,184.82,21h67.05c71.72,0,130.39,58.68,130.39,130.4V239.6C382.26,329.76,308.5,403.52,218.34,403.52Z"/><path class="cls-5" d="M232.59,280.05c0,11.89-1,16.08-17.62,16.08s-17.62-4.19-17.62-16.08,7.89-21.54,17.62-21.54S232.59,268.15,232.59,280.05Z"/><g class="cls-6"><path class="cls-7" d="M172.86,329.7c0-11.89,25.49-16.08,42.11-16.08s42.11,4.19,42.11,16.08S224.7,351.23,215,351.23,172.86,341.59,172.86,329.7Z"/></g><circle class="cls-8" cx="131.56" cy="243.15" r="21.41"/><circle class="cls-8" cx="302.84" cy="243.15" r="21.41"/><path class="cls-9" d="M330.56,865.48l-42.91,484.93c-.82,9.3-7.59,16.37-15.66,16.37H250.53c-8.76,0-15.84-8.28-15.74-18.42.79-81.56,3.92-407.86,3.92-445.82,0-43.2,91.06-119.69,91.94-39.38C330.66,863.93,330.62,864.72,330.56,865.48Z"/><path class="cls-10" d="M257.15,1366.78a8.73,8.73,0,0,1-8.7-9c.66-28.6,4.91-36.49,17.55-43.68,10.85-6.17,71.26,18.79,87.58,38.35a8.71,8.71,0,0,1-6.68,14.29Z"/><path class="cls-11" d="M105.75,865.48l42.9,484.93c.83,9.3,7.59,16.37,15.66,16.37h21.46c8.77,0,15.84-8.28,15.75-18.42-.79-81.56-3.93-407.86-3.93-445.82,0-43.2-91.06-119.69-91.94-39.38A22.38,22.38,0,0,0,105.75,865.48Z"/><path class="cls-12" d="M179.54,1366.78a8.72,8.72,0,0,0,8.69-9c-.65-28.6-4.91-36.49-17.55-43.68-10.85-6.17-71.25,18.79-87.58,38.35a8.71,8.71,0,0,0,6.69,14.29Z"/><path class="cls-13" d="M69.65,261.19s-18-63,9-81c0-36,9-90,81-90h54V.19s-82.87-3.33-117,18c-72,45-54,135-54,180,0,16.29,9,63,9,63Z"/><path class="cls-13" d="M364.65,261.19s18-63-9-81c0-36-9-90-81-90h-54V.19s82.87-3.33,117,18c72,45,54,135,54,180,0,16.29-9,63-9,63Z"/><rect class="cls-13" x="186.65" y="0.19" width="63" height="90"/><path class="cls-14" d="M399.65,584.82c-3.71-14.21-7.56-28.4-11.77-42.53-2.11-7.06-4.25-14.12-6.54-21.18s-4.53-13.94-7.27-21.58c-.26-.7-.56-1.48-.87-2.17a32.31,32.31,0,0,0-2.85-5.1c-4-8.09-9.41-14.4-15.89-16.7-25.77-9.17-60.93-14.11-81.9-26.33-19.48,21.24-54.76,35.95-54.76,35.95s-35.41-14.75-54.87-36.06c-21,12.3-56.24,17.25-82.09,26.44-11.18,4-19.07,19.88-22.49,36.31-1,3.08-2,6.12-3,9.24-2.28,7.06-4.42,14.12-6.53,21.18C44.6,556.42,40.74,570.61,37,584.82Q27.21,623.1,20,662l48.76,19.6q8.87-34.74,19.89-68.88c10.75,27.93,19,54,19,62.89,0,11.32-1.67,65.16-2.7,118.94H330.52c-.76-53.78-2-107.62-2-118.94,0-9.06,8.28-35.85,19.05-64.31q10.6,32.67,19.22,66l49-19.72Q408.87,620.93,399.65,584.82Z"/><path class="cls-15" d="M331.11,862.38c0-20.13-.25-44-.59-67.87H105c-.46,23.88-.79,47.74-.79,67.87l1.45.86c0,.74,0,1.51.1,2.24l40,451.85.1,1.18h55.4c-1.06-109.78-3.54-372-3.63-413.88a157.91,157.91,0,0,1,20.05-1.22,154.26,154.26,0,0,1,21.06,1.36c-.1,42.33-2.58,304.08-3.63,413.74h55.39l.12-1.3,40-451.73c.06-.76.1-1.55.09-2.32,0-.17,0-.34,0-.51Z"/><path class="cls-16" d="M353.47,1352.49a8.71,8.71,0,0,1-6.68,14.29h-96c-8.76,0-15.84-8.28-15.74-18.42.08-7.77.17-17.78.29-29.54a55.87,55.87,0,0,0,60.55.23C317.36,1326.73,343.55,1340.6,353.47,1352.49Z"/><path class="cls-16" d="M83.1,1352.49a8.71,8.71,0,0,0,6.69,14.29h96c8.77,0,15.84-8.28,15.75-18.42-.08-7.77-.18-17.78-.29-29.54a55.87,55.87,0,0,1-60.55.23C119.21,1326.73,93,1340.6,83.1,1352.49Z"/></g></g></svg>