<svg xmlns="http://www.w3.org/2000/svg" xmlns:xlink="http://www.w3.org/1999/xlink" viewBox="0 0 408.39 447.13"><defs><style>.cls-1{fill:none;}.cls-2{fill:#e1ae90;}.cls-3{fill:#efd7b4;}.cls-4{clip-path:url(#clip-path);}.cls-5{fill:#de7765;}.cls-6{fill:#6f6b6c;}.cls-7{fill:#b9b0a5;}</style><clipPath id="clip-path"><ellipse class="cls-1" cx="207.59" cy="387.93" rx="55.03" ry="18.26"/></clipPath></defs><title>Asset 3</title><g id="Layer_2" data-name="Layer 2"><g id="Layer_2-2" data-name="Layer 2"><path class="cls-2" d="M56.94,302.5s-8.38-26-34.39-17.62-.86,86.39,51.15,69.63Z"/><path class="cls-2" d="M363.65,302.5s8.38-26,34.39-17.62.86,86.39-51.15,69.63Z"/><path class="cls-3" d="M210.3,447.13h0c-90.15,0-163.91-73.76-163.91-163.92V195.05c0-71.72,58.67-130.39,130.39-130.39h67c71.72,0,130.39,58.67,130.39,130.39v88.16C374.21,373.37,300.45,447.13,210.3,447.13Z"/><path class="cls-2" d="M224.54,323.66c0,11.89-1,16.08-17.62,16.08s-17.61-4.19-17.61-16.08,7.88-21.53,17.61-21.53S224.54,311.77,224.54,323.66Z"/><g class="cls-4"><path class="cls-5" d="M164.81,373.31c0-11.89,25.5-16.08,42.11-16.08S249,361.42,249,373.31s-32.38,21.53-42.11,21.53S164.81,385.2,164.81,373.31Z"/></g><circle class="cls-6" cx="123.51" cy="286.77" r="21.41"/><circle class="cls-6" cx="294.79" cy="286.77" r="21.41"/><path class="cls-7" d="M56.26,166.34C26.38,158.58,3.38,130.58.38,99.58c-3-29,12-55,34-73,36-29,87-38,125-8,19,16,34,52,11,68-35,23-84,21-106.93,59.56A64.43,64.43,0,0,0,56.26,166.34Z"/><path class="cls-7" d="M200.38,60.58c-20-26-189-17.8-177.83,224.3,38.54,10.2,17.92,108.05,73.83,99.45,24.44-3.76,21.87-26.95,14.62-37.65,6.49,14.87-33.32,82.38-46.62-46.1,2-44,110-78,140-182,.05.19.11.37.16.56C212.2,99.3,200.38,80.43,200.38,60.58Z"/><path class="cls-7" d="M163.88,51.58c68-30,244.37-8.8,233.21,233.3-38.54,10.2-17.91,108.05-73.82,99.45-24.44-3.76-21.88-26.95-14.62-37.65-6.49,14.87,33.32,82.38,46.62-46.1-2-44-121.39-78.5-151.39-182.5C203.83,118.27,204.88,72.58,163.88,51.58Z"/></g></g></svg>