<svg xmlns="http://www.w3.org/2000/svg" xmlns:xlink="http://www.w3.org/1999/xlink" viewBox="0 0 438 1312.78"><defs><style>.cls-1{fill:none;}.cls-2{fill:url(#linear-gradient);}.cls-3{fill:#ecc58e;}.cls-4{fill:#cc9156;}.cls-5{fill:#d29a66;}.cls-6{clip-path:url(#clip-path);}.cls-7{fill:#de7764;}.cls-8{fill:#504e4f;}.cls-9{fill:url(#linear-gradient-2);}.cls-10{fill:url(#linear-gradient-3);}.cls-11{fill:url(#linear-gradient-4);}.cls-12{fill:url(#linear-gradient-5);}.cls-13{fill:#5c4940;}.cls-14{fill:#ed3866;}.cls-15{fill:#665142;}</style><linearGradient id="linear-gradient" x1="219.66" y1="918.71" x2="219.66" y2="406.68" gradientUnits="userSpaceOnUse"><stop offset="0.97" stop-color="#ecc58e"/><stop offset="0.99" stop-color="#ddad78"/><stop offset="1" stop-color="#d29a66"/></linearGradient><clipPath id="clip-path"><ellipse class="cls-1" cx="216.95" cy="353.13" rx="55.03" ry="18.26"/></clipPath><linearGradient id="linear-gradient-2" x1="249.85" y1="1080.07" x2="345.71" y2="1080.07" xlink:href="#linear-gradient"/><linearGradient id="linear-gradient-3" x1="249.76" y1="1285.98" x2="356.94" y2="1285.98" xlink:href="#linear-gradient"/><linearGradient id="linear-gradient-4" x1="93.6" y1="1080.07" x2="189.46" y2="1080.07" xlink:href="#linear-gradient"/><linearGradient id="linear-gradient-5" x1="-1017.89" y1="1285.98" x2="-910.72" y2="1285.98" gradientTransform="matrix(-1, 0, 0, 1, -828.34, 0)" xlink:href="#linear-gradient"/></defs><title>Asset 6</title><g id="Layer_2" data-name="Layer 2"><g id="Layer_3" data-name="Layer 3"><path class="cls-2" d="M345.72,880.56l-92.16,38.15c0-8.66-68.13-8.66-68.13,0l-91.5-38.15c0-72,18.78-92.84,28-199.63C128,610.71,80.9,593.86,61,556.4c-9.05-17,.36-64.71,20.94-72,39.09-13.9,99.79-18.09,99.79-52.69V358.21h75.81v73.47c0,34.6,60.7,38.79,99.79,52.69,20.58,7.32,30,55,20.94,72-9.23,17.4-24.38,30.36-37.33,46.28C326,621,314,643.34,317.35,680.93,326.82,787.72,345.72,808.53,345.72,880.56Z"/><path class="cls-3" d="M123.26,532.43c-2.52,5.69-5.3,12.32-7.84,18.66s-5.1,12.91-7.57,19.42c-4.95,13-9.58,26.22-14.09,39.47q-13.35,39.78-23.71,80.53C63,717.6,57.5,745,53,772.56l-3.08,20.69c-.93,6.9-1.54,13.82-2.33,20.74l-1.13,10.39c-.32,3.46-.46,6.92-.7,10.39l-1.3,20.81-.06,1a19.48,19.48,0,0,1-38.93-1L5.2,833.41c0-3.7-.13-7.41-.06-11.1l.38-11c.3-7.36.42-14.76.87-22.12l1.66-22c2.64-29.31,6.32-58.54,11.63-87.41s11.37-57.62,18.67-86.07c3.71-14.21,7.56-28.4,11.77-42.52,2.11-7.07,4.25-14.13,6.53-21.19s4.54-13.94,7.28-21.58A32,32,0,1,1,124.25,530q-.37,1.07-.84,2.1Z"/><path class="cls-3" d="M61.6,866.62c8.53,27.36,21.72,55.55,4.74,60.84s-50.93,7.45-59.45-19.91-8.45-75.61,8.53-80.9S53.08,839.25,61.6,866.62Z"/><path class="cls-4" d="M38.15,871.52H69.73a0,0,0,0,1,0,0v43.42A3.73,3.73,0,0,1,66,918.68H41.88a3.73,3.73,0,0,1-3.73-3.73V871.52A0,0,0,0,1,38.15,871.52Z" transform="translate(-263.7 56.52) rotate(-17.3)"/><path class="cls-3" d="M38,865.41H67.86a0,0,0,0,1,0,0v43.43a3.73,3.73,0,0,1-3.73,3.73H41.71A3.73,3.73,0,0,1,38,908.83V865.41A0,0,0,0,1,38,865.41Z" transform="matrix(0.95, -0.3, 0.3, 0.95, -261.93, 55.94)"/><path class="cls-3" d="M375.38,508.34c2.74,7.64,5,14.43,7.28,21.58s4.42,14.12,6.53,21.19c4.21,14.12,8.07,28.31,11.77,42.52q10.95,42.68,18.67,86.07c5.31,28.87,9,58.1,11.64,87.41l1.65,22c.45,7.36.58,14.76.87,22.12l.39,11c.06,3.69-.05,7.4-.06,11.1l-.24,22.17A19.49,19.49,0,0,1,395,856.65l-.07-1.07-1.3-20.81c-.24-3.47-.38-6.93-.7-10.39L391.76,814c-.8-6.92-1.41-13.84-2.34-20.74l-3.08-20.69c-4.53-27.54-10-55-17.08-82s-14.81-54-23.71-80.53c-4.51-13.25-9.14-26.44-14.09-39.47-2.47-6.51-5-13-7.57-19.42s-5.31-13-7.84-18.66l-.12-.28a32,32,0,1,1,58.58-26C374.82,506.86,375.13,507.64,375.38,508.34Z"/><path class="cls-3" d="M377.71,866.62C369.19,894,356,922.17,373,927.46s50.92,7.45,59.45-19.91,8.44-75.61-8.54-80.9S386.23,839.25,377.71,866.62Z"/><path class="cls-4" d="M373.32,871.52h24.11a3.73,3.73,0,0,1,3.73,3.73v43.42a0,0,0,0,1,0,0H369.59a0,0,0,0,1,0,0V875.25a3.73,3.73,0,0,1,3.73-3.73Z" transform="translate(487.18 1864.3) rotate(-162.7)"/><path class="cls-3" d="M375.18,865.41H397.6a3.73,3.73,0,0,1,3.73,3.73v43.43a0,0,0,0,1,0,0H371.45a0,0,0,0,1,0,0V869.14A3.73,3.73,0,0,1,375.18,865.41Z" transform="translate(490.98 1852.65) rotate(-162.7)"/><path class="cls-5" d="M66.3,267.7s-8.38-26-34.39-17.62-.86,86.39,51.15,69.63Z"/><path class="cls-5" d="M373,267.7s8.38-26,34.38-17.62.86,86.39-51.14,69.63Z"/><path class="cls-3" d="M219.66,412.33h0c-90.16,0-163.92-73.76-163.92-163.92V160.25c0-71.72,58.67-130.4,130.39-130.4h67.05c71.72,0,130.4,58.68,130.4,130.4v88.16C383.58,338.57,309.81,412.33,219.66,412.33Z"/><path class="cls-5" d="M233.9,288.86c0,11.89-1,16.08-17.61,16.08s-17.62-4.19-17.62-16.08,7.89-21.54,17.62-21.54S233.9,277,233.9,288.86Z"/><g class="cls-6"><path class="cls-7" d="M174.18,338.51c0-11.89,25.49-16.08,42.11-16.08s42.1,4.19,42.1,16.08S226,360,216.29,360,174.18,350.4,174.18,338.51Z"/></g><circle class="cls-8" cx="132.87" cy="251.96" r="21.41"/><circle class="cls-8" cx="304.16" cy="251.96" r="21.41"/><path class="cls-9" d="M345.62,879.74l-42.91,418.9a15.74,15.74,0,0,1-15.66,14.14H265.59a15.74,15.74,0,0,1-15.74-15.91c.79-70.46,3.92-352.33,3.92-385.11,0-37.33,91.07-103.4,91.94-34A19.12,19.12,0,0,1,345.62,879.74Z"/><path class="cls-10" d="M258.46,1312.78a8.73,8.73,0,0,1-8.7-9c.66-28.6,4.91-36.49,17.56-43.68,10.85-6.17,71.25,18.79,87.58,38.35a8.71,8.71,0,0,1-6.69,14.29Z"/><path class="cls-11" d="M93.69,879.74l42.91,418.9a15.74,15.74,0,0,0,15.66,14.14h21.46a15.74,15.74,0,0,0,15.74-15.91c-.79-70.46-3.92-352.33-3.92-385.11,0-37.33-91.06-103.4-91.94-34A19.12,19.12,0,0,0,93.69,879.74Z"/><path class="cls-12" d="M180.85,1312.78a8.73,8.73,0,0,0,8.7-9c-.66-28.6-4.91-36.49-17.55-43.68-10.85-6.17-71.26,18.79-87.59,38.35a8.71,8.71,0,0,0,6.69,14.29Z"/><path class="cls-13" d="M269.84,117.78s-52,88-200,88c-20,0-2,200,38,200-56,0-92-32-92-66s-58-214,48-286,234-68,258-10c46,0,151.61,48.93,90,280-8,30-20,78-82,80C343.84,387.78,431.17,147.09,269.84,117.78Z"/><path class="cls-14" d="M342.43,600.9q1.57,4.53,3.12,9.08,12,35.7,21.54,72.18l51-10.93q-7.27-39.08-17.12-77.6c-3.7-14.21-7.56-28.4-11.77-42.52-2.11-7.07-4.25-14.13-6.53-21.19-.84-2.62-1.67-5.19-2.53-7.78-3.24-16.93-11.26-33.68-22.78-37.77-23-8.16-53.36-13-74.55-22.58-12.24,19.5-35.92,32.72-63.14,32.72s-50.91-13.22-63.15-32.72c-21.19,9.6-51.59,14.42-74.55,22.58-11.52,4.09-19.54,20.83-22.78,37.77-.85,2.59-1.69,5.16-2.53,7.78C54.37,537,52.23,544,50.12,551.11c-4.21,14.12-8.06,28.31-11.77,42.52Q28.29,632.86,21,672.7l50.87,10.9Q81.57,646.45,93.76,610q1.55-4.53,3.11-9.05c15.56,18.7,28.45,41.2,25.09,80-8.82,101.81-26.3,125.47-27.91,189.88a63.71,63.71,0,0,0-.45,6.93,19.12,19.12,0,0,0,.09,2l19.55,190.77H326.08l19.44-189.87.1-.9a17.53,17.53,0,0,0,.09-1.78v-.4c-.52-69.63-19-91.34-28.36-196.63C314,643.34,326,621,341,602.68,341.44,602.08,341.94,601.5,342.43,600.9Z"/><path class="cls-15" d="M308,1269.21c-9,8.92-23.5,14.72-39.89,14.72-5.74,0-12.93-1.44-18.06-2.75,0,0-.07,13-.26,22.64a8.75,8.75,0,0,0,8.7,9h89.75a8.71,8.71,0,0,0,6.68-14.29C346.62,1288.52,326.85,1277.14,308,1269.21Z"/><path class="cls-15" d="M131.27,1269.21c9,8.92,23.51,14.72,39.89,14.72,5.75,0,12.93-1.44,18.06-2.75,0,0,.08,13,.26,22.64a8.73,8.73,0,0,1-8.69,9H91a8.71,8.71,0,0,1-6.69-14.29C92.67,1288.52,112.45,1277.14,131.27,1269.21Z"/></g></g></svg>