<svg xmlns="http://www.w3.org/2000/svg" xmlns:xlink="http://www.w3.org/1999/xlink" viewBox="0 0 436.69 1296.55"><defs><style>.cls-1{fill:none;}.cls-2{fill:url(#linear-gradient);}.cls-3{fill:#ce9760;}.cls-4{fill:#af6454;}.cls-5{fill:url(#linear-gradient-2);}.cls-6{fill:url(#linear-gradient-3);}.cls-7{fill:url(#linear-gradient-4);}.cls-8{fill:url(#linear-gradient-5);}.cls-9{fill:#866b5f;}.cls-10{fill:#b56f5e;}.cls-11{fill:#3b3a3c;}.cls-12{fill:url(#linear-gradient-6);}.cls-13{clip-path:url(#clip-path);}.cls-14{fill:#a52b34;}.cls-15{fill:#393839;}.cls-16{fill:#222123;}.cls-17{fill:#dd528a;}</style><linearGradient id="linear-gradient" x1="218.34" y1="886.01" x2="218.34" y2="400.78" gradientUnits="userSpaceOnUse"><stop offset="0.97" stop-color="#ce9760"/><stop offset="0.99" stop-color="#bf7f5f"/><stop offset="1" stop-color="#b56f5e"/></linearGradient><linearGradient id="linear-gradient-2" x1="248.54" y1="1049.58" x2="344.4" y2="1049.58" xlink:href="#linear-gradient"/><linearGradient id="linear-gradient-3" x1="248.45" y1="1269.75" x2="355.63" y2="1269.75" xlink:href="#linear-gradient"/><linearGradient id="linear-gradient-4" x1="92.29" y1="1049.58" x2="188.15" y2="1049.58" xlink:href="#linear-gradient"/><linearGradient id="linear-gradient-5" x1="-1882.55" y1="1269.75" x2="-1775.37" y2="1269.75" gradientTransform="matrix(-1, 0, 0, 1, -1694.31, 0)" xlink:href="#linear-gradient"/><linearGradient id="linear-gradient-6" x1="62.54" y1="215.02" x2="390.38" y2="215.02" xlink:href="#linear-gradient"/><clipPath id="clip-path"><ellipse class="cls-1" cx="215.64" cy="349.76" rx="55.03" ry="18.26"/></clipPath></defs><title>Asset 2</title><g id="Layer_2" data-name="Layer 2"><g id="Layer_3" data-name="Layer 3"><path class="cls-2" d="M344.4,837.06l-92.25,48c-.15-12-69.68-11.07-69.52.92l-90-49c0-66.5,10.18-85.85,20.18-154.38,6.57-45.07-33.2-110.3-53.08-144.87-9.06-15.74.36-59.75,20.94-66.5,39.09-12.84,99.79-16.71,99.79-48.65V354.84h75.8v67.82c0,31.94,60.71,35.81,99.8,48.65,20.57,6.75,30,50.76,20.94,66.5-9.24,16.06-24.39,28-37.34,42.72-14.93,16.94-19.34,78-15.74,102.15C334.13,751.21,344.4,770.56,344.4,837.06Z"/><path class="cls-3" d="M121.94,523.91c-2.52,5.05-5.29,10.93-7.83,16.55s-5.1,11.44-7.57,17.21c-5,11.55-9.59,23.25-14.09,35Q79.1,627.92,68.74,664a727.33,727.33,0,0,0-17.08,72.73l-3.09,18.35c-.92,6.12-1.54,12.25-2.33,18.39l-1.13,9.2c-.31,3.07-.45,6.14-.69,9.21l-1.3,18.45-.06.89c-.68,9.52-9.93,16.76-20.67,16.16-10.24-.57-18.13-8.11-18.27-17l-.24-19.65c0-3.28-.12-6.57-.06-9.84l.38-9.79c.3-6.53.43-13.09.88-19.61L6.73,732a761.4,761.4,0,0,1,11.64-77.49Q26.13,616,37,578.17c3.7-12.6,7.56-25.18,11.77-37.7,2.11-6.26,4.25-12.52,6.53-18.78s4.54-12.35,7.28-19.13c6-14.76,24.32-22.44,41-17.14s25.32,21.55,19.35,36.32c-.26.63-.54,1.26-.84,1.86Z"/><path class="cls-3" d="M60.29,820.15C68.81,844.41,82,869.4,65,874.09S14.09,880.7,5.57,856.44s-8.44-67,8.54-71.72S51.77,795.9,60.29,820.15Z"/><path class="cls-4" d="M71.14,862.18l-23,6.35a3.83,3.83,0,0,1-4.67-2.17L30.54,829.61l30.15-8.33L73.6,858A3.27,3.27,0,0,1,71.14,862.18Z"/><path class="cls-3" d="M69.32,857l-21.4,5.91a3.84,3.84,0,0,1-4.67-2.17L30.34,824l28.52-7.88,12.92,36.76A3.27,3.27,0,0,1,69.32,857Z"/><path class="cls-3" d="M374.07,502.56c2.74,6.78,5,12.79,7.27,19.13s4.43,12.52,6.54,18.78c4.21,12.52,8.06,25.1,11.77,37.7q10.94,37.83,18.67,76.29A758.58,758.58,0,0,1,430,732l1.66,19.53c.45,6.52.57,13.08.87,19.61l.38,9.79c.07,3.27,0,6.56-.06,9.84l-.24,19.65c-.11,9.54-8.93,17.19-19.69,17.08-10.26-.09-18.58-7.2-19.24-16.13l-.06-1-1.31-18.45c-.23-3.07-.38-6.14-.69-9.21l-1.13-9.2c-.79-6.14-1.4-12.27-2.33-18.39L385,736.77A732.9,732.9,0,0,0,368,664q-10.38-36-23.71-71.38c-4.51-11.74-9.14-23.44-14.09-35-2.48-5.77-5-11.53-7.57-17.21s-5.32-11.5-7.84-16.55l-.12-.24c-7.18-14.34.12-31.12,16.3-37.48s35.1.11,42.28,14.45C373.51,501.25,373.81,501.94,374.07,502.56Z"/><path class="cls-3" d="M376.4,820.15c-8.53,24.26-21.72,49.25-4.74,53.94s50.93,6.61,59.45-17.65,8.45-67-8.54-71.72S384.92,795.9,376.4,820.15Z"/><path class="cls-4" d="M365.54,862.18l23,6.35a3.85,3.85,0,0,0,4.68-2.17l12.91-36.75L376,821.28,363.09,858A3.26,3.26,0,0,0,365.54,862.18Z"/><path class="cls-3" d="M367.36,857l21.41,5.91a3.85,3.85,0,0,0,4.67-2.17L406.35,824l-28.53-7.88-12.91,36.76A3.25,3.25,0,0,0,367.36,857Z"/><path class="cls-5" d="M344.3,847.72l-42.9,422.11a15.8,15.8,0,0,1-15.66,14.25H264.28a15.8,15.8,0,0,1-15.74-16c.78-71,3.92-355,3.92-388.06,0-37.61,91.06-104.19,91.94-34.28A17.08,17.08,0,0,1,344.3,847.72Z"/><path class="cls-6" d="M257.15,1296.55a8.73,8.73,0,0,1-8.7-9c.66-28.6,4.91-36.49,17.55-43.68,10.85-6.17,71.26,18.79,87.58,38.35a8.71,8.71,0,0,1-6.68,14.29Z"/><path class="cls-7" d="M92.38,847.72l42.91,422.11A15.79,15.79,0,0,0,151,1284.08h21.46a15.8,15.8,0,0,0,15.74-16c-.79-71-3.92-355-3.92-388.06,0-37.61-91.07-104.19-91.94-34.28A17.07,17.07,0,0,0,92.38,847.72Z"/><path class="cls-8" d="M179.54,1296.55a8.72,8.72,0,0,0,8.69-9c-.65-28.6-4.91-36.49-17.55-43.68-10.85-6.17-71.25,18.79-87.58,38.35a8.71,8.71,0,0,0,6.69,14.29Z"/><path class="cls-9" d="M117.6,306.61a19.71,19.71,0,0,1,1.45,1.9A4.53,4.53,0,0,0,117.6,306.61Z"/><path class="cls-10" d="M65,264.33s-8.38-26-34.38-17.62-.86,86.39,51.14,69.63Z"/><path class="cls-10" d="M371.7,264.33s8.38-26,34.38-17.62.87,86.39-51.14,69.63Z"/><path class="cls-11" d="M268.75,558.1c-3.9,5.48-6.48,15-6.48,25.79,0,17,14.22,30.74,14.22,30.74s14.23-13.76,14.23-30.74c0-9.72-2.09-18.38-5.35-24,17.76-24.16,31.27-126.23,37.79-185.4a163.23,163.23,0,0,1-67.55,29.17C254.69,445.94,254.64,532.86,268.75,558.1Z"/><path class="cls-12" d="M260,23.78H192.93c-71.72,0-130.39,58.68-130.39,130.39v88.17c0,90.16,73.76,163.92,163.92,163.92h0a162.78,162.78,0,0,0,96.7-31.79c40.68-29.91,67.22-78.07,67.22-132.13V154.17C390.38,82.46,331.7,23.78,260,23.78Z"/><path class="cls-10" d="M232.59,285.49c0,11.89-1,16.08-17.62,16.08s-17.62-4.19-17.62-16.08S205.24,264,215,264,232.59,273.6,232.59,285.49Z"/><g class="cls-13"><path class="cls-14" d="M172.86,335.14c0-11.89,25.49-16.08,42.11-16.08s42.11,4.19,42.11,16.08S224.7,356.67,215,356.67,172.86,347,172.86,335.14Z"/></g><circle class="cls-15" cx="131.56" cy="248.6" r="21.41"/><circle class="cls-15" cx="302.84" cy="248.6" r="21.41"/><path class="cls-11" d="M89.14,336.7c-14.57-14.11-25.57-31.11-34.41-49.93A182.6,182.6,0,0,1,43,250.23c-21.08-99.88,34.85-214,60.39-216.13C272.78-33.65,349.86,9.21,383.58,78.53a196.83,196.83,0,0,1,8.86,21.5c2.26,8.32,4.47,16.87,6.48,25.55,15.65,67,23.65,159-47.35,199-18,10-46,3-52-19,4,10,16,12,25,8,30-12,33.18-37.6,30.18-68.6-6-44-35.18-73.4-72.21-89.5-7.27-3.52-14.5-6.81-21.41-10-8.75-4.05-17.62-7.89-26.39-11.58-43.85-18.48-85.28-33.44-98-54.26,0,0-28.52,54.62-46.51,116.27-3.6,12.33-6.77,25-9.22,37.46-3.43,23.21-8.43,47.21-3.45,70.88C79.51,316.38,83.23,327.38,89.14,336.7Z"/><path class="cls-16" d="M306.45,1253c-9,8.92-23.51,14.72-39.89,14.72-5.75,0-12.93-1.44-18.06-2.75,0,0-.08,13-.26,22.64a8.74,8.74,0,0,0,8.69,9h89.75a8.71,8.71,0,0,0,6.69-14.29C345.05,1272.29,325.27,1260.92,306.45,1253Z"/><path class="cls-16" d="M129.7,1253c9,8.92,23.5,14.72,39.89,14.72,5.74,0,12.93-1.44,18.06-2.75,0,0,.08,13,.26,22.64a8.75,8.75,0,0,1-8.7,9H89.46a8.71,8.71,0,0,1-6.68-14.29C91.1,1272.29,110.87,1260.92,129.7,1253Z"/><path class="cls-17" d="M340.42,671V466.81c-14.17-3.65-29.55-6.85-43.23-10.89a86.6,86.6,0,0,1-158.68.29c-15.18,4.41-32.34,7.84-47.57,12V671H340.42Z"/><path class="cls-16" d="M344.4,837.06c0-66.5-10.27-85.85-20.5-154.38-.12-.76-.22-1.56-.32-2.39H113.08c-.09.8-.18,1.6-.29,2.39-10,68.53-20.18,87.88-20.18,154.38l.31.17a65.35,65.35,0,0,0-.63,8.47,17.07,17.07,0,0,0,.09,2l39.09,384.57h56.28c-1.09-99.42-3.38-310.61-3.52-349.29,10.38-9,67.78-8.81,67.92,2.09l.29-.15c-.19,43.32-2.43,249.49-3.51,347.35h56.28L344.3,847.72a17.08,17.08,0,0,0,.1-2,65.07,65.07,0,0,0-.62-8.32Z"/><path class="cls-11" d="M268.75,558.1c-3.9,5.48-6.48,15-6.48,25.79,0,17,14.22,30.74,14.22,30.74s14.23-13.76,14.23-30.74c0-9.72-2.09-18.38-5.35-24,17.76-24.16,31.27-126.23,37.79-185.4a163.23,163.23,0,0,1-67.55,29.17C254.69,445.94,254.64,532.86,268.75,558.1Z"/></g></g></svg>