<svg xmlns="http://www.w3.org/2000/svg" xmlns:xlink="http://www.w3.org/1999/xlink" viewBox="0 0 430.64 412.33"><defs><style>.cls-1{fill:none;}.cls-2{fill:#d29a66;}.cls-3{fill:#ecc58e;}.cls-4{clip-path:url(#clip-path);}.cls-5{fill:#de7764;}.cls-6{fill:#504e4f;}.cls-7{fill:#5c4940;}</style><clipPath id="clip-path"><ellipse class="cls-1" cx="216.95" cy="353.13" rx="55.03" ry="18.26"/></clipPath></defs><title>Asset 5</title><g id="Layer_2" data-name="Layer 2"><g id="Layer_2-2" data-name="Layer 2"><path class="cls-2" d="M66.3,267.7s-8.38-26-34.39-17.62-.86,86.39,51.15,69.63Z"/><path class="cls-2" d="M373,267.7s8.38-26,34.38-17.62.86,86.39-51.14,69.63Z"/><path class="cls-3" d="M219.66,412.33h0c-90.16,0-163.92-73.76-163.92-163.92V160.25c0-71.72,58.67-130.4,130.39-130.4h67.05c71.72,0,130.4,58.68,130.4,130.4v88.16C383.58,338.57,309.81,412.33,219.66,412.33Z"/><path class="cls-2" d="M233.9,288.86c0,11.89-1,16.08-17.61,16.08s-17.62-4.19-17.62-16.08,7.89-21.54,17.62-21.54S233.9,277,233.9,288.86Z"/><g class="cls-4"><path class="cls-5" d="M174.18,338.51c0-11.89,25.49-16.08,42.11-16.08s42.1,4.19,42.1,16.08S226,360,216.29,360,174.18,350.4,174.18,338.51Z"/></g><circle class="cls-6" cx="132.87" cy="251.96" r="21.41"/><circle class="cls-6" cx="304.16" cy="251.96" r="21.41"/><path class="cls-7" d="M269.84,117.78s-52,88-200,88c-20,0-2,200,38,200-56,0-92-32-92-66s-58-214,48-286,234-68,258-10c46,0,151.61,48.93,90,280-8,30-20,78-82,80C343.84,387.78,431.17,147.09,269.84,117.78Z"/></g></g></svg>