<svg xmlns="http://www.w3.org/2000/svg" xmlns:xlink="http://www.w3.org/1999/xlink" viewBox="0 0 396.2 403.52"><defs><style>.cls-1{fill:none;}.cls-2{fill:#d29a66;}.cls-3{fill:#ecc58e;}.cls-4{clip-path:url(#clip-path);}.cls-5{fill:#e2a372;}.cls-6{fill:#504e4f;}.cls-7{fill:#5c4940;}</style><clipPath id="clip-path"><ellipse class="cls-1" cx="195.39" cy="344.32" rx="55.03" ry="18.26"/></clipPath></defs><title>Asset 7</title><g id="Layer_2" data-name="Layer 2"><g id="Layer_2-2" data-name="Layer 2"><path class="cls-2" d="M44.74,258.89s-8.38-26-34.38-17.62-.87,86.38,51.14,69.62Z"/><path class="cls-2" d="M351.46,258.89s8.38-26,34.38-17.62.86,86.38-51.14,69.62Z"/><path class="cls-3" d="M198.1,403.52h0c-90.16,0-163.92-73.76-163.92-163.92V151.44C34.18,79.72,92.86,21,164.57,21h67.06C303.34,21,362,79.72,362,151.44V239.6C362,329.76,288.25,403.52,198.1,403.52Z"/><path class="cls-2" d="M212.34,280.05c0,11.89-1,16.08-17.61,16.08s-17.62-4.19-17.62-16.08,7.89-21.54,17.62-21.54S212.34,268.15,212.34,280.05Z"/><g class="cls-4"><path class="cls-5" d="M152.62,329.7c0-11.89,25.49-16.08,42.11-16.08s42.11,4.19,42.11,16.08-32.38,21.53-42.11,21.53S152.62,341.59,152.62,329.7Z"/></g><circle class="cls-6" cx="111.31" cy="243.15" r="21.41"/><circle class="cls-6" cx="282.6" cy="243.15" r="21.41"/><path class="cls-7" d="M49.41,261.19s-18-63,9-81c0-36,9-90,81-90h54V.19s-82.87-3.33-117,18c-72,45-54,135-54,180,0,16.29,9,63,9,63Z"/><path class="cls-7" d="M344.41,261.19s18-63-9-81c0-36-9-90-81-90h-54V.19s82.87-3.33,117,18c72,45,54,135,54,180,0,16.29-9,63-9,63Z"/><rect class="cls-7" x="166.41" y="0.19" width="63" height="90"/></g></g></svg>