<svg xmlns="http://www.w3.org/2000/svg" viewBox="0 0 519.86 477.04"><defs><style>.cls-1{fill:#4f201f;}</style></defs><title>Asset 11</title><g id="Layer_2" data-name="Layer 2"><g id="Layer_3" data-name="Layer 3"><path class="cls-1" d="M474.11,45.74c-58.7-58.69-152.81-60.9-214.18-6.63C198.56-15.16,104.45-12.95,45.75,45.74c-60,60-61,157.12-2.85,218.33l.21,10.71A10,10,0,0,0,46,281.66l36.83,36.83a10,10,0,0,0,6.88,2.93l5.05.1.09,5a10,10,0,0,0,2.93,6.88l36.83,36.83a10,10,0,0,0,6.88,2.93l5,.09.1,5a10,10,0,0,0,2.93,6.88l36.83,36.83A10,10,0,0,0,193.3,425l5,.1.1,5.05a10,10,0,0,0,2.93,6.87l36.83,36.84a10,10,0,0,0,6.87,2.92l14.67.28h.19a10,10,0,0,0,7.07-2.93l51.78-51.78h0l43.87-43.87a10,10,0,0,0,2.92-6.88l.1-5,5.05-.1a10,10,0,0,0,6.87-2.92l37.25-37.25a10,10,0,0,0,2.93-6.88l.09-5,5.05-.1a10.08,10.08,0,0,0,6.9-2.95l44.3-44.3C535.11,206,535.11,106.74,474.11,45.74ZM460,59.89a136.48,136.48,0,0,1,6.82,185.64l-148-148a10,10,0,0,0-14.14,0L208.15,194l-37.63-37.64L267,59.89h0C320.21,6.69,406.77,6.68,460,59.89ZM63,270.37,62.9,264l41.7-41.7,37.63,37.64-41.69,41.69-6.38-.12Zm51.78,51.78-.12-6.38,41.7-41.7L194,311.7,164.76,341,152.31,353.4l-6.38-.12Zm51.78,51.77-.12-6.38,41.69-41.69,37.64,37.63-41.7,41.7-6.38-.12Zm89.29,83-6.38-.13L218.36,425.7l-.13-6.38,41.7-41.7,37.64,37.64ZM418.49,294.33l-6.33.12L344.67,227l-14.14,14.14L398,308.55l-.12,6.43L366.3,346.52l-5.52.11-67.89-67.89-14.14,14.15,67,67-.13,7.24-34,33.95L267,356.41l-51.77-51.78-51.78-51.78h0l-22-22-29.74-29.73c-.24-.24-.49-.46-.74-.67s-.39-.29-.58-.43l-.21-.16c-.25-.16-.5-.31-.76-.45l-.08-.05c-.26-.14-.54-.26-.81-.38l-.07,0c-.26-.11-.53-.2-.8-.29l-.12,0a6.49,6.49,0,0,0-.76-.19l-.2,0c-.24-.05-.48-.08-.72-.11l-.24,0a8.15,8.15,0,0,0-1,0,8,8,0,0,0-1,0l-.25,0c-.24,0-.48.06-.72.11l-.22,0c-.24.06-.49.11-.73.19l-.15,0a7.08,7.08,0,0,0-.77.28l-.1,0c-.27.12-.53.24-.78.37a.6.6,0,0,1-.11.06c-.25.14-.49.28-.73.44l-.22.16c-.19.14-.39.27-.57.43a7.85,7.85,0,0,0-.74.67L53.07,245.53A136.48,136.48,0,0,1,59.89,59.89C110.72,9.06,192,6.79,245.53,53.07L149.3,149.3a10,10,0,0,0,0,14.14l51.78,51.78c.25.24.5.47.76.69a10,10,0,0,0,13.39-.69l96.48-96.49L452.9,259.93Z"/></g></g></svg>