<svg xmlns="http://www.w3.org/2000/svg" xmlns:xlink="http://www.w3.org/1999/xlink" viewBox="0 0 396.2 614.63"><defs><style>.cls-1{fill:none;}.cls-2{fill:#866b5f;}.cls-3{fill:#3b3a3c;}.cls-4{fill:#b56f5e;}.cls-5{fill:#ce9760;}.cls-6{clip-path:url(#clip-path);}.cls-7{fill:#a52b34;}.cls-8{fill:#393839;}</style><clipPath id="clip-path"><ellipse class="cls-1" cx="195.39" cy="349.76" rx="55.03" ry="18.26"/></clipPath></defs><title>Asset 1</title><g id="Layer_2" data-name="Layer 2"><g id="Layer_2-2" data-name="Layer 2"><path class="cls-2" d="M97.36,306.61a19.66,19.66,0,0,1,1.44,1.9A4.52,4.52,0,0,0,97.36,306.61Z"/><path class="cls-3" d="M236.09,380.15s-8.3,185,21.34,185,49.8-233.58,49.8-233.58Z"/><path class="cls-4" d="M44.74,264.33s-8.38-26-34.38-17.62S9.49,333.1,61.5,316.34Z"/><path class="cls-4" d="M351.46,264.33s8.38-26,34.38-17.62.86,86.39-51.14,69.63Z"/><path class="cls-5" d="M206.21,406.26h0c-90.15,0-163.92-73.76-163.92-163.92V154.17c0-71.71,58.68-130.39,130.4-130.39h67.05c71.72,0,130.39,58.68,130.39,130.39v88.17C370.13,332.5,296.37,406.26,206.21,406.26Z"/><path class="cls-4" d="M212.34,285.49c0,11.89-1,16.08-17.61,16.08s-17.62-4.19-17.62-16.08S185,264,194.73,264,212.34,273.6,212.34,285.49Z"/><g class="cls-6"><path class="cls-7" d="M152.62,335.14c0-11.89,25.49-16.08,42.11-16.08s42.11,4.19,42.11,16.08-32.38,21.53-42.11,21.53S152.62,347,152.62,335.14Z"/></g><circle class="cls-8" cx="111.31" cy="248.6" r="21.41"/><circle class="cls-8" cx="282.6" cy="248.6" r="21.41"/><path class="cls-3" d="M68.9,336.7c-14.57-14.11-25.57-31.11-34.42-49.93a181.93,181.93,0,0,1-11.72-36.54C1.68,150.35,57.61,36.23,83.15,34.1,252.54-33.65,329.62,9.21,363.33,78.53a194.87,194.87,0,0,1,8.86,21.5c2.27,8.32,4.47,16.87,6.49,25.55,15.65,67,23.65,159-47.35,199-18,10-46,3-52-19,4,10,16,12,25,8,30-12,33.17-37.6,30.17-68.6-6-44-35.17-73.4-72.2-89.5-7.28-3.52-14.51-6.81-21.41-10-8.75-4.05-17.62-7.89-26.39-11.58-43.86-18.48-85.29-33.44-98-54.26,0,0-28.52,54.62-46.51,116.27-3.6,12.33-6.78,25-9.23,37.46-3.42,23.21-8.42,47.21-3.45,70.88C59.27,316.38,63,327.38,68.9,336.7Z"/><path class="cls-3" d="M270.48,583.89c0,17-14.23,30.74-14.23,30.74S242,600.87,242,583.89s6.37-30.74,14.23-30.74S270.48,566.91,270.48,583.89Z"/></g></g></svg>